<svg id="visual" viewBox="0 0 960 540" width="960" height="540" xmlns="http://www.w3.org/2000/svg" xmlns:xlink="http://www.w3.org/1999/xlink" version="1.1"><rect x="0" y="0" width="960" height="540" fill="#FFFFFF"></rect><defs><linearGradient id="grad1_0" x1="43.8%" y1="0%" x2="100%" y2="100%"><stop offset="14.444444444444446%" stop-color="#715df2" stop-opacity="1"></stop><stop offset="85.55555555555554%" stop-color="#715df2" stop-opacity="1"></stop></linearGradient></defs><defs><linearGradient id="grad1_1" x1="43.8%" y1="0%" x2="100%" y2="100%"><stop offset="14.444444444444446%" stop-color="#715df2" stop-opacity="1"></stop><stop offset="85.55555555555554%" stop-color="#c1acfa" stop-opacity="1"></stop></linearGradient></defs><defs><linearGradient id="grad1_2" x1="43.8%" y1="0%" x2="100%" y2="100%"><stop offset="14.444444444444446%" stop-color="#ffffff" stop-opacity="1"></stop><stop offset="85.55555555555554%" stop-color="#c1acfa" stop-opacity="1"></stop></linearGradient></defs><defs><linearGradient id="grad2_0" x1="0%" y1="0%" x2="56.3%" y2="100%"><stop offset="14.444444444444446%" stop-color="#715df2" stop-opacity="1"></stop><stop offset="85.55555555555554%" stop-color="#715df2" stop-opacity="1"></stop></linearGradient></defs><defs><linearGradient id="grad2_1" x1="0%" y1="0%" x2="56.3%" y2="100%"><stop offset="14.444444444444446%" stop-color="#c1acfa" stop-opacity="1"></stop><stop offset="85.55555555555554%" stop-color="#715df2" stop-opacity="1"></stop></linearGradient></defs><defs><linearGradient id="grad2_2" x1="0%" y1="0%" x2="56.3%" y2="100%"><stop offset="14.444444444444446%" stop-color="#c1acfa" stop-opacity="1"></stop><stop offset="85.55555555555554%" stop-color="#ffffff" stop-opacity="1"></stop></linearGradient></defs><g transform="translate(960, 0)"><path d="M0 351C-34.9 342 -69.9 333 -104.4 321.5C-139 309.9 -173.2 295.9 -198.7 273.4C-224.2 250.9 -241 220 -264.5 192.2C-288.1 164.5 -318.3 140 -333.8 108.5C-349.3 77 -350.2 38.5 -351 0L0 0Z" fill="#e1d5fd"></path><path d="M0 234C-23.3 228 -46.6 222 -69.6 214.3C-92.7 206.6 -115.4 197.3 -132.4 182.3C-149.5 167.3 -160.7 146.6 -176.4 128.1C-192.1 109.6 -212.2 93.3 -222.5 72.3C-232.9 51.3 -233.4 25.7 -234 0L0 0Z" fill="#9c84f7"></path><path d="M0 117C-11.6 114 -23.3 111 -34.8 107.2C-46.3 103.3 -57.7 98.6 -66.2 91.1C-74.7 83.6 -80.3 73.3 -88.2 64.1C-96 54.8 -106.1 46.7 -111.3 36.2C-116.4 25.7 -116.7 12.8 -117 0L0 0Z" fill="#715df2"></path></g><g transform="translate(0, 540)"><path d="M0 -351C30.6 -324.5 61.3 -297.9 90.9 -279.6C120.4 -261.3 148.9 -251.2 169.3 -233C189.6 -214.8 201.8 -188.5 232.2 -168.7C262.5 -148.9 311 -135.5 333.8 -108.5C356.6 -81.4 353.8 -40.7 351 0L0 0Z" fill="#e1d5fd"></path><path d="M0 -234C20.4 -216.3 40.9 -198.6 60.6 -186.4C80.3 -174.2 99.3 -167.5 112.9 -155.3C126.4 -143.2 134.6 -125.7 154.8 -112.5C175 -99.2 207.3 -90.3 222.5 -72.3C237.8 -54.3 235.9 -27.1 234 0L0 0Z" fill="#9c84f7"></path><path d="M0 -117C10.2 -108.2 20.4 -99.3 30.3 -93.2C40.1 -87.1 49.6 -83.7 56.4 -77.7C63.2 -71.6 67.3 -62.8 77.4 -56.2C87.5 -49.6 103.7 -45.2 111.3 -36.2C118.9 -27.1 117.9 -13.6 117 0L0 0Z" fill="#715df2"></path></g></svg>